<?xml version="1.0" encoding="UTF-8"?>
<svg version="1.1" xmlns="http://www.w3.org/2000/svg" width="145" height="157">
<path d="M0 0 C0.84519196 -0.00095673 1.69038391 -0.00191345 2.56118774 -0.00289917 C4.35150222 -0.00357861 6.14181919 -0.00174081 7.93212891 0.00244141 C10.62017649 0.00772622 13.30805181 0.00252329 15.99609375 -0.00390625 C45.65643574 -0.02002964 45.65643574 -0.02002964 49.9765625 3.2578125 C56.2890625 11.10578547 56.2890625 11.10578547 56.2890625 15.1328125 C55.52875732 15.1421582 54.76845215 15.15150391 53.98510742 15.16113281 C50.48164417 15.21539646 46.97943698 15.29893315 43.4765625 15.3828125 C42.28095703 15.39699219 41.08535156 15.41117188 39.85351562 15.42578125 C30.25486542 15.68732485 20.31316273 16.91029136 13.2890625 24.1328125 C11.10684676 26.97846975 11.10684676 26.97846975 9.1015625 30.2578125 C8.72209473 30.85891846 8.34262695 31.46002441 7.95166016 32.0793457 C4.38624798 37.80827847 1.13783713 43.70955357 -2.09790039 49.62890625 C-5.39171695 55.63585074 -8.91508586 61.42646599 -12.7109375 67.1328125 C-15.0209375 66.4728125 -17.3309375 65.8128125 -19.7109375 65.1328125 C-19.06922305 67.61311348 -18.42278429 70.09200972 -17.7734375 72.5703125 C-17.59103516 73.27736328 -17.40863281 73.98441406 -17.22070312 74.71289062 C-16.52944376 78.20856111 -16.52944376 78.20856111 -14.7109375 81.1328125 C-14.4207373 80.62234375 -14.13053711 80.111875 -13.83154297 79.5859375 C-10.13803853 73.09388763 -6.42888749 66.61089153 -2.7109375 60.1328125 C-2.10717285 59.0804541 -1.5034082 58.0280957 -0.88134766 56.94384766 C0.94074037 53.7744308 2.77010603 50.6093234 4.6015625 47.4453125 C5.44388428 45.97868164 5.44388428 45.97868164 6.30322266 44.48242188 C17.96088325 24.40781386 17.96088325 24.40781386 28.2890625 21.1328125 C31.42700195 20.90576172 31.42700195 20.90576172 34.90234375 20.9375 C36.14951172 20.94394531 37.39667969 20.95039062 38.68164062 20.95703125 C39.97521484 20.97378906 41.26878906 20.99054687 42.6015625 21.0078125 C43.91447266 21.01683594 45.22738281 21.02585937 46.58007812 21.03515625 C49.81659163 21.05869453 53.05273399 21.0915773 56.2890625 21.1328125 C55.15848329 24.63719195 54.12069957 27.65348368 52.0390625 30.6953125 C49.93719346 33.86200635 49.93719346 33.86200635 50.92578125 36.38671875 C52.63106758 39.82172245 54.45524698 43.17588889 56.3515625 46.5078125 C56.74279297 47.20318115 57.13402344 47.8985498 57.53710938 48.61499023 C59.57351938 52.21078039 61.65990551 55.7635957 63.84765625 59.26953125 C64.25685303 59.92969238 64.6660498 60.58985352 65.08764648 61.27001953 C65.86680382 62.5186346 66.65612802 63.76098462 67.45727539 64.99560547 C69.99405166 69.06383661 71.20487669 72.32895961 71.2890625 77.1328125 C69.33408079 84.1974055 65.51964548 90.24286063 61.7890625 96.5078125 C61.17047363 97.55477295 60.55188477 98.6017334 59.91455078 99.68041992 C58.65254333 101.81129467 57.38709938 103.94013804 56.11816406 106.06689453 C54.42459368 108.90563678 52.74297332 111.75115094 51.0625 114.59765625 C50.09753943 116.21424975 49.13146525 117.83017926 48.1640625 119.4453125 C47.72771484 120.18507324 47.29136719 120.92483398 46.84179688 121.68701172 C46.42994141 122.36650879 46.01808594 123.04600586 45.59375 123.74609375 C45.24296387 124.33173096 44.89217773 124.91736816 44.53076172 125.52075195 C42.26462327 128.46281097 40.29137539 129.99022624 36.56385803 130.52049255 C35.52192795 130.52589554 34.47999786 130.53129852 33.40649414 130.53686523 C31.62928734 130.55589149 31.62928734 130.55589149 29.81617737 130.57530212 C27.90203285 130.57089867 27.90203285 130.57089867 25.94921875 130.56640625 C23.97785194 130.57426903 23.97785194 130.57426903 21.96665955 130.58229065 C19.18674106 130.59121679 16.40710992 130.58880487 13.62719727 130.57885742 C10.07160889 130.56737172 6.51701427 130.58757378 2.96155643 130.61677456 C-0.43844166 130.63957606 -3.83820856 130.63266833 -7.23828125 130.62890625 C-9.14938942 130.64575722 -9.14938942 130.64575722 -11.09910583 130.66294861 C-12.28706253 130.65356766 -13.47501923 130.64418671 -14.69897461 130.63452148 C-15.74170029 130.63435532 -16.78442596 130.63418915 -17.85874939 130.63401794 C-21.44860184 130.00318522 -23.10354525 128.63071557 -25.7109375 126.1328125 C-27.29296875 123.5546875 -27.29296875 123.5546875 -28.5234375 120.8828125 C-29.15185547 119.54476562 -29.15185547 119.54476562 -29.79296875 118.1796875 C-30.09589844 117.50421875 -30.39882813 116.82875 -30.7109375 116.1328125 C-29.57047974 116.11879395 -29.57047974 116.11879395 -28.40698242 116.10449219 C-24.90351917 116.05022854 -21.40131198 115.96669185 -17.8984375 115.8828125 C-16.70283203 115.86863281 -15.50722656 115.85445313 -14.27539062 115.83984375 C-3.7645368 115.55344446 5.74429095 113.91583999 13.2890625 106.1328125 C14.94897298 103.85428445 16.41771445 101.66651735 17.8515625 99.2578125 C18.26212891 98.58596924 18.67269531 97.91412598 19.09570312 97.22192383 C24.63540971 88.06033744 29.8244371 78.68624253 35.02734375 69.33081055 C36.04569252 67.5567792 37.15440275 65.83480213 38.2890625 64.1328125 C44.0390625 65.0078125 44.0390625 65.0078125 46.2890625 66.1328125 C46.0003125 65.15699219 45.7115625 64.18117188 45.4140625 63.17578125 C45.03885231 61.89068635 44.66386388 60.60552669 44.2890625 59.3203125 C43.9178125 58.05574219 43.5465625 56.79117188 43.1640625 55.48828125 C42.2890625 52.1328125 42.2890625 52.1328125 42.2890625 49.1328125 C41.6290625 49.1328125 40.9690625 49.1328125 40.2890625 49.1328125 C39.88506226 50.20233154 39.88506226 50.20233154 39.47290039 51.29345703 C38.26862939 54.18181995 36.87715074 56.83321104 35.34765625 59.5625 C34.76822266 60.59826172 34.18878906 61.63402344 33.59179688 62.70117188 C32.66850586 64.33795898 32.66850586 64.33795898 31.7265625 66.0078125 C31.09685547 67.12736328 30.46714844 68.24691406 29.81835938 69.40039062 C25.11535877 77.73293315 20.33577398 86.00374101 15.2890625 94.1328125 C14.73863281 95.03257813 14.18820313 95.93234375 13.62109375 96.859375 C9.91272374 102.71268911 5.87597994 107.44968004 -0.7109375 110.1328125 C-10.59638767 111.45253255 -20.87792511 111.91292681 -30.7109375 110.1328125 C-30.26621094 109.32457031 -29.82148438 108.51632813 -29.36328125 107.68359375 C-28.51443359 106.08064453 -28.51443359 106.08064453 -27.6484375 104.4453125 C-27.07996094 103.38957031 -26.51148437 102.33382812 -25.92578125 101.24609375 C-24.53794347 97.68948053 -24.40979283 96.66898792 -25.7109375 93.1328125 C-27.11672787 90.25164571 -28.67880984 87.47554568 -30.2734375 84.6953125 C-30.94137329 83.5053064 -30.94137329 83.5053064 -31.62280273 82.29125977 C-33.73247065 78.5447092 -35.88001005 74.82813908 -38.1171875 71.15625 C-45.95946752 58.22563901 -45.95946752 58.22563901 -44.7109375 52.1328125 C-42.81210786 47.20445855 -40.36021076 42.6841281 -37.7109375 38.1328125 C-37.3617627 37.53162598 -37.01258789 36.93043945 -36.65283203 36.31103516 C-34.84015404 33.21607691 -32.98964071 30.14655776 -31.11328125 27.08984375 C-29.39214603 24.27920216 -27.72727049 21.442247 -26.08984375 18.58203125 C-25.6513208 17.81995361 -25.21279785 17.05787598 -24.76098633 16.27270508 C-23.91756246 14.80332606 -23.07980321 13.33067542 -22.2487793 11.85424805 C-16.54065473 1.96465912 -16.54065473 1.96465912 -11.59814453 0.51171875 C-7.71996235 0.00276063 -3.90742878 -0.00986117 0 0 Z " fill="#FE5A5B" transform="translate(60.7109375,12.8671875)"/>
<path d="M0 0 C0.84519196 -0.00095673 1.69038391 -0.00191345 2.56118774 -0.00289917 C4.35150222 -0.00357861 6.14181919 -0.00174081 7.93212891 0.00244141 C10.62017649 0.00772622 13.30805181 0.00252329 15.99609375 -0.00390625 C45.65643574 -0.02002964 45.65643574 -0.02002964 49.9765625 3.2578125 C56.2890625 11.10578547 56.2890625 11.10578547 56.2890625 15.1328125 C55.52875732 15.1421582 54.76845215 15.15150391 53.98510742 15.16113281 C50.48164417 15.21539646 46.97943698 15.29893315 43.4765625 15.3828125 C42.28095703 15.39699219 41.08535156 15.41117188 39.85351562 15.42578125 C30.25486542 15.68732485 20.31316273 16.91029136 13.2890625 24.1328125 C11.10684676 26.97846975 11.10684676 26.97846975 9.1015625 30.2578125 C8.72209473 30.85891846 8.34262695 31.46002441 7.95166016 32.0793457 C4.38624798 37.80827847 1.13783713 43.70955357 -2.09790039 49.62890625 C-5.39171695 55.63585074 -8.91508586 61.42646599 -12.7109375 67.1328125 C-15.0209375 66.4728125 -17.3309375 65.8128125 -19.7109375 65.1328125 C-19.26878906 66.36515625 -18.82664062 67.5975 -18.37109375 68.8671875 C-13.76490296 82.87266955 -13.76490296 82.87266955 -15.9375 88.06640625 C-17.68912171 90.97298172 -19.48198721 93.57742555 -21.7109375 96.1328125 C-25.2668928 94.94749407 -25.66738734 93.78794269 -27.31201172 90.57373047 C-27.62928223 89.93322754 -27.94655273 89.29272461 -28.2734375 88.6328125 C-31.73020823 81.88246623 -35.46378138 75.3483408 -39.38500977 68.85742188 C-42.95408619 62.89638816 -45.34098441 58.6652128 -44.32617188 51.56005859 C-43.19074934 47.08054634 -40.85333416 43.36089466 -38.4609375 39.4453125 C-37.66707642 38.10629883 -37.66707642 38.10629883 -36.85717773 36.74023438 C-35.73300524 34.84612812 -34.60255722 32.95573435 -33.46630859 31.06884766 C-31.67936182 28.079999 -29.93476424 25.06973096 -28.19921875 22.05078125 C-27.05771448 20.0778803 -25.91579891 18.10521727 -24.7734375 16.1328125 C-24.24266602 15.20766846 -23.71189453 14.28252441 -23.16503906 13.3293457 C-16.48954191 1.94067733 -16.48954191 1.94067733 -11.60327148 0.52001953 C-7.72294989 0.00054709 -3.91074011 -0.00986953 0 0 Z " fill="#FE5B5C" transform="translate(60.7109375,12.8671875)"/>
<path d="M0 0 C1.299375 0.01353516 2.59875 0.02707031 3.9375 0.04101562 C7.12543412 0.07617666 10.31249599 0.12539336 13.5 0.1875 C12.14663461 4.42943522 10.64768735 7.84221669 8.1875 11.5625 C7.56359375 12.52027344 6.9396875 13.47804688 6.296875 14.46484375 C5.70390625 15.36332031 5.1109375 16.26179688 4.5 17.1875 C1.6114267 21.57846343 -0.93252461 25.9883128 -3.234375 30.71875 C-6.29973014 36.88922149 -9.67598268 42.82474546 -13.1875 48.75 C-18.46922922 57.68363089 -18.46922922 57.68363089 -23.57421875 66.71875 C-24.04964111 67.57138428 -24.52506348 68.42401855 -25.01489258 69.30249023 C-25.88780802 70.87329931 -26.74938119 72.45049616 -27.59643555 74.03540039 C-31.29611662 80.63711458 -36.43312517 86.16858067 -43.5 89.1875 C-53.45315616 90.51625888 -63.60041811 90.83743031 -73.5 89.1875 C-71.19 84.5675 -68.88 79.9475 -66.5 75.1875 C-65.84 75.1875 -65.18 75.1875 -64.5 75.1875 C-64.21713135 74.45644043 -63.9342627 73.72538086 -63.64282227 72.97216797 C-61.85210154 68.60879249 -59.62783686 64.48625679 -57.4375 60.3125 C-56.94290283 59.36995361 -56.44830566 58.42740723 -55.9387207 57.45629883 C-52.83173248 51.5848762 -49.61255352 45.81866045 -46.13330078 40.16064453 C-43.7000399 36.20298264 -41.34915834 32.20689224 -39.0390625 28.17578125 C-38.42458252 27.10690674 -37.81010254 26.03803223 -37.17700195 24.93676758 C-35.96161307 22.81870935 -34.75154598 20.69758571 -33.54760742 18.57299805 C-24.57376499 2.98913592 -24.57376499 2.98913592 -16.98046875 0.62255859 C-11.3671934 -0.36197454 -5.67700153 -0.11250155 0 0 Z " fill="#D6393A" transform="translate(103.5,33.8125)"/>
</svg>
